<?xml version="1.0" encoding="UTF-8" standalone="no"?>
<!-- Generator: Adobe Illustrator 26.0.3, SVG Export Plug-In . SVG Version: 6.00 Build 0)  -->

<svg
   version="1.1"
   id="color_stroke"
   x="0px"
   y="0px"
   viewBox="0 0 1790.1 236.39999"
   xml:space="preserve"
   width="1790.1"
   height="236.39999"
   xmlns="http://www.w3.org/2000/svg"
   xmlns:svg="http://www.w3.org/2000/svg"><defs
   id="defs105" />
<style
   type="text/css"
   id="style58">
	.st0{fill-rule:evenodd;clip-rule:evenodd;fill:#213469;}
	.st1{fill-rule:evenodd;clip-rule:evenodd;fill:#E91D2C;}
	.st2{fill:#FFFFFF;}
	.st3{fill:#213469;}
	.st4{fill:#E91D2C;}
	.st5{fill:#BBBBBB;}
</style>
<g
   id="g100"
   transform="translate(-65,-37.8)">
	<g
   id="g98">
		<g
   id="g96">
			<path
   class="st0"
   d="m 1823.6,70 h -57.7 l -36.7,51.6 -23.1,-51.6 h -58.3 l 42.4,80.4 -46.8,57.4 L 1609.9,70 h -57.7 l -87.9,167.8 h 54 l 12.2,-27.7 h 60.1 l 4.7,27.7 h 23.6 31.8 27.3 l 41.4,-53.9 26.2,53.9 h 59.4 l -46.1,-86.6 z m -276.4,103.9 27.2,-60.3 10.4,60.3 z"
   id="path60" />
			<polygon
   class="st0"
   points="1358.1,111.5 1402.9,111.5 1385.2,237.9 1438.1,237.9 1455.8,111.5 1509.8,111.5 1515.6,70 1392.2,70 "
   id="polygon62" />
			<polygon
   class="st1"
   points="326.5,237.9 461.9,237.9 467.7,196.5 385.2,196.5 402.9,70 350.1,70 "
   id="polygon64" />
			<polygon
   class="st1"
   points="562.1,70 509,70 485.5,237.9 538.5,237.9 "
   id="polygon66" />
			<path
   class="st1"
   d="m 685.7,70 h -99 l -23.6,167.8 h 91.3 c 3.9,0 11.9,-0.8 24,-2.3 9.1,-1.1 16.1,-3 20.9,-5.5 7.7,-4 14.1,-9.5 19.2,-16.5 5.1,-6.9 8.3,-14.8 9.5,-23.5 1.5,-10.7 -0.2,-19.6 -5,-26.6 -4.8,-7.1 -13.2,-12 -25.1,-14.9 8.5,-2.7 15.2,-6.5 20,-11.2 7.3,-7.1 11.7,-15.6 13,-25.5 C 732.7,100 729.7,90 722,82 714.3,74 702.2,70 685.7,70 Z m -9.9,114.3 c -0.8,5.3 -3.2,9.6 -7.4,12.8 -4.2,3.2 -10.8,4.8 -19.9,4.8 h -27 l 4.8,-34 h 26.9 c 9.3,0 15.5,1.5 18.8,4.5 3.2,2.9 4.5,6.9 3.8,11.9 z m 2.3,-64.7 c -0.7,5.3 -2.9,9.3 -6.5,12.1 -3.6,2.8 -9.6,4.2 -17.8,4.2 h -23 l 4.5,-31.8 h 23.4 c 8,0 13.4,1.4 16.3,4.1 2.7,2.7 3.8,6.5 3.1,11.4 z"
   id="path68" />
			<polygon
   class="st1"
   points="760.7,70 737.1,237.9 881.4,237.9 886.8,199.8 795.5,199.8 800.1,166.8 882.4,166.8 887.2,132.5 804.9,132.5 808.7,105.8 897.4,105.8 902.4,70 "
   id="polygon70" />
			<path
   class="st1"
   d="m 1320.7,70 -42.5,56.6 -26.5,-56.6 h -16.2 -42.5 -130.5 c 6,3.7 10.8,8.6 14.4,14.8 4.3,7.6 6.1,16.5 5.5,26.6 h 33.9 l -17.8,126.4 h 52.9 l 17.8,-126.4 h 46.4 l 30.5,56.1 -9.9,70.3 h 53 l 9.9,-70.3 80.3,-97.5 z"
   id="path72" />
			<path
   class="st1"
   d="M 1047.5,74.1 C 1039.2,71.4 1026.9,70 1010.6,70 H 922.4 L 898.8,237.8 H 952 l 9.6,-68.1 h 4.7 c 4.8,0 9,1.3 12.4,3.9 2.5,2 5.1,6.3 7.8,12.9 l 21.1,51.3 h 59.8 l -18.8,-48.6 c -0.9,-2.4 -2.9,-5.9 -5.9,-10.4 -3.1,-4.5 -5.5,-7.4 -7.2,-8.8 -2.6,-2.1 -6.9,-4.1 -12.9,-6.2 8.1,-1.8 14.6,-4 19.5,-6.6 7.7,-4.2 14,-9.7 19,-16.4 5,-6.8 8.2,-14.8 9.5,-24.1 1.5,-10.7 0.1,-19.7 -4.1,-27.2 -4.5,-7.5 -10.7,-12.6 -19,-15.4 z m -30.8,46.6 c -0.5,3.7 -2.1,6.9 -4.7,9.7 -2.6,2.8 -5.7,4.6 -9.3,5.3 -7.1,1.5 -11.9,2.3 -14.3,2.3 H 966 l 4.8,-34.1 H 994 c 9.7,0 16,1.5 19.1,4.4 3.2,2.9 4.3,7 3.6,12.4 z"
   id="path74" />
			<g
   id="g90">
				<path
   class="st2"
   d="M 183.2,274.2 C 248.5,274.2 301.4,221.3 301.4,156 301.4,90.7 248.4,37.8 183.2,37.8 118,37.8 65,90.7 65,156 c 0,65.3 52.9,118.2 118.2,118.2"
   id="path76" />
				<path
   class="st3"
   d="M 183.2,52.9 C 126.3,52.9 80.1,99.1 80.1,156 c 0,45.4 29.5,83.9 70.3,97.7 l 15,-12.8 h 35.5 l 4.6,15.7 C 251.7,246.4 286.4,205.2 286.4,156 286.3,99.1 240,52.9 183.2,52.9 Z"
   id="path78" />
				<path
   class="st2"
   d="m 154.1,228.8 -3.8,24.9 c 10.3,3.5 21.4,5.4 32.9,5.4 7.6,0 15.1,-0.9 22.3,-2.4 l 19.2,-39.9 z"
   id="path80" />
				<polygon
   class="st2"
   points="244,193.1 153.1,193.1 150.2,211.8 235,211.8 "
   id="polygon82" />
				<path
   class="st2"
   d="m 229.1,179.4 c -13.5,-72.1 -71.4,-39 -103.7,-93.5 -24.6,42.9 41.1,55.6 35.2,93.5 z"
   id="path84" />
				<path
   class="st4"
   d="m 200.4,179.4 h 43.7 c 24.5,-70.8 -50.6,-57.6 -75.1,-87 -0.1,0.2 -0.1,0.4 -0.2,0.6 -1.1,4.8 -8.3,40.4 31.6,86.4"
   id="path86" />
				<path
   class="st5"
   d="m 169.2,120.5 c 3,15.3 11.2,35.8 31.2,58.9 h 28.7 c -8.4,-44.9 -34,-49 -59.9,-58.9"
   id="path88" />
			</g>
			<g
   id="g94">
				<path
   class="st3"
   d="m 1826.3,84.4 c 0,-8 6.4,-14.4 14.4,-14.4 8,0 14.4,6.4 14.4,14.4 0,7.9 -6.4,14.4 -14.4,14.4 -8,0 -14.4,-6.5 -14.4,-14.4 z m 1.9,0 c 0,6.8 5.6,12.5 12.5,12.5 6.8,0 12.4,-5.6 12.4,-12.5 0,-6.9 -5.6,-12.4 -12.4,-12.4 -7,0 -12.5,5.5 -12.5,12.4 z m 12.1,1.8 h -3 v 6.5 h -2.2 V 76.2 h 6.7 c 2.8,0 5.2,2 5.2,5 0,3.7 -3.3,4.9 -4.2,4.9 l 4.4,6.6 h -2.7 z m -3,-8.1 v 6.1 h 4.5 c 1.7,0 3,-1.3 3,-3 0,-1.8 -1.3,-3.1 -3,-3.1 z"
   id="path92" />
			</g>
		</g>
	</g>
</g>
</svg>
